HIERARCHY
ROOT Hips
{
	OFFSET -3.958830 18.904000 13.208200
	CHANNELS 6 Xposition Yposition Zposition Zrotation Yrotation Xrotation 
	JOINT LHipJoint
	{
		OFFSET 0.000000 0.000000 0.000000
		CHANNELS 3 Zrotation Yrotation Xrotation
		JOINT LeftUpLeg
		{
			OFFSET 1.800000 -1.400000 0.085000
			CHANNELS 3 Zrotation Yrotation Xrotation
			JOINT LeftLeg
			{
				OFFSET 2.215000 -6.000000 0.000000
				CHANNELS 3 Zrotation Yrotation Xrotation
				JOINT LeftFoot
				{
					OFFSET 2.500000 -6.900000 0.000000
					CHANNELS 3 Zrotation Yrotation Xrotation
					JOINT LeftToeBase
					{
						OFFSET 0.200000 -0.500000 1.950000
						CHANNELS 3 Zrotation Yrotation Xrotation
						End Site
						{
							OFFSET 0.000000 0.000000 0.000000
						}
					}
				}
			}
		}
	}
	JOINT RHipJoint
	{
		OFFSET 0.000000 0.000000 0.000000
		CHANNELS 3 Zrotation Yrotation Xrotation
		JOINT RightUpLeg
		{
			OFFSET -1.800000 -1.400000 0.085000
			CHANNELS 3 Zrotation Yrotation Xrotation
			JOINT RightLeg
			{
				OFFSET -2.215000 -6.000000 0.000000
				CHANNELS 3 Zrotation Yrotation Xrotation
				JOINT RightFoot
				{
					OFFSET -2.500000 -6.900000 0.000000
					CHANNELS 3 Zrotation Yrotation Xrotation
					JOINT RightToeBase
					{
						OFFSET -0.200000 -0.500000 1.950000
						CHANNELS 3 Zrotation Yrotation Xrotation
						End Site
						{
							OFFSET 0.000000 0.000000 0.000000
						}
					}
				}
			}
		}
	}
	JOINT LowerBack
	{
		OFFSET 0.000000 0.000000 0.000000
		CHANNELS 3 Zrotation Yrotation Xrotation
		JOINT Spine
		{
			OFFSET -0.087000 1.940000 -0.288900
			CHANNELS 3 Zrotation Yrotation Xrotation
			JOINT Spine1
			{
				OFFSET 0.000000 1.950000 0.060000
				CHANNELS 3 Zrotation Yrotation Xrotation
				JOINT Neck
				{
					OFFSET 0.000000 0.000000 0.000000
					CHANNELS 3 Zrotation Yrotation Xrotation
					JOINT Neck1
					{
						OFFSET 0.000000 1.600000 0.340000
						CHANNELS 3 Zrotation Yrotation Xrotation
						JOINT Head
						{
							OFFSET 0.000000 1.667000 -0.240000
							CHANNELS 3 Zrotation Yrotation Xrotation
							End Site
							{
								OFFSET 0.000000 0.000000 0.000000
							}
						}
					}
				}
				JOINT LeftShoulder
				{
					OFFSET 0.000000 0.000000 0.000000
					CHANNELS 3 Zrotation Yrotation Xrotation
					JOINT LeftArm
					{
						OFFSET 2.700000 1.550000 -0.730000
						CHANNELS 3 Zrotation Yrotation Xrotation
						JOINT LeftForeArm
						{
							OFFSET 5.450000 0.000000 0.000000
							CHANNELS 3 Zrotation Yrotation Xrotation
							JOINT LeftHand
							{
								OFFSET 3.450000 0.000000 0.000000
								CHANNELS 3 Zrotation Yrotation Xrotation
								JOINT LeftHandIndex1
								{
									OFFSET 0.750000 0.000000 0.000000
									CHANNELS 3 Zrotation Yrotation Xrotation
									End Site
									{
										OFFSET 0.000000 0.000000 0.000000
									}
								}
							}
						}
					}
				}
				JOINT RightShoulder
				{
					OFFSET 0.000000 0.000000 0.000000
					CHANNELS 3 Zrotation Yrotation Xrotation
					JOINT RightArm
					{
						OFFSET -2.700000 1.550000 -0.730000
						CHANNELS 3 Zrotation Yrotation Xrotation
						JOINT RightForeArm
						{
							OFFSET -5.450000 0.000000 0.000000
							CHANNELS 3 Zrotation Yrotation Xrotation
							JOINT RightHand
							{
								OFFSET -3.450000 0.000000 0.000000
								CHANNELS 3 Zrotation Yrotation Xrotation
								JOINT RightHandIndex1
								{
									OFFSET -0.750000 0.000000 0.000000
									CHANNELS 3 Zrotation Yrotation Xrotation
									End Site
									{
										OFFSET 0.000000 0.000000 0.000000
									}
								}
							}
						}
					}
				}
			}
		}
	}
}
MOTION
Frames: 14
Frame Time: 0.016667
-2.804250 18.304110 -1.213710 -43.538135 56.288948 -39.430210 -15.843622 11.798279 1.264298 21.915079 0.124812 -17.264998 -2.476443 7.116125 18.523001 -0.362856 5.014796 2.785531 0.388760 0.212110 0.007900 18.230815 -7.143381 6.349304 -19.635550 16.987565 -60.280959 27.103310 -38.997579 75.541612 -3.262436 -16.337000 -0.579413 0.214530 0.428700 0.126860 -5.525356 -0.534116 -9.745788 24.974084 -7.975432 27.949201 -9.656474 -0.917557 17.144766 4.520231 0.771622 -11.113094 -2.176707 -9.944329 39.473722 18.801790 -18.288140 -16.876270 -6.293828 -30.219534 8.928772 -38.943537 -44.223152 12.549138 133.830239 -55.842779 -119.017707 -3.649527 2.879900 0.362240 -0.004960 -0.064870 0.323650 -2.439582 28.545007 4.186834 1.673315 30.342966 -5.531501 -131.626077 60.338092 -118.056955 2.185858 -1.531788 -0.168390 0.373790 -0.019990 0.125700 
-2.821240 18.309780 -1.205530 -44.912811 56.677285 -40.275689 -15.846359 11.652673 1.342861 22.624351 0.199947 -17.593338 -3.238476 7.186948 17.523424 -0.342911 5.024244 2.768832 0.391230 0.183890 0.052540 18.235232 -7.076197 6.354099 -18.319188 18.382923 -60.779069 27.385408 -40.644675 77.603637 -3.460221 -16.878861 -0.682878 0.177470 0.383990 0.149340 -5.637349 -0.258214 -9.868708 26.364855 -8.094328 28.343177 -10.745815 -0.534612 15.872344 4.958757 1.200354 -11.304037 -1.405085 -10.438644 40.511709 18.851700 -18.417060 -17.352960 -8.092867 -30.042927 9.539228 -40.706143 -41.174615 10.833386 141.560490 -60.173673 -134.464932 -3.568364 3.086170 0.404070 -0.031960 -0.026870 0.306420 -1.634363 28.518513 3.826422 4.930848 30.239266 -5.906412 -144.102215 63.813661 -139.026366 2.108134 -1.840110 -0.154600 0.338620 -0.032770 0.103180 
-2.840890 18.307710 -1.193060 -47.162133 58.066951 -42.004243 -15.889111 11.589586 1.416277 22.728632 0.323075 -18.392854 -3.470588 7.042832 16.561683 -0.361851 4.911255 2.780419 0.419010 0.194480 0.133440 18.186798 -6.985803 6.357834 -16.436058 20.271749 -61.001374 27.809178 -43.078660 80.573277 -3.751618 -17.647259 -0.819316 0.161580 0.301470 0.163340 -5.733265 0.036723 -10.009087 27.460550 -8.272382 29.156603 -11.881109 -0.194494 13.986600 5.643032 2.370360 -11.495168 0.875543 -11.484107 41.861502 18.457360 -17.834850 -18.953590 -10.681540 -29.783547 10.109870 -43.266157 -36.275489 7.177905 159.469332 -66.545951 -164.183481 -3.412538 3.211122 0.476370 -0.077670 0.043410 0.277700 -0.548415 28.167894 3.454938 10.546828 29.806591 -7.291864 -163.372745 68.745632 -168.989130 1.949506 -1.857856 -0.142500 0.311540 -0.059930 0.060950 
-2.848920 18.288040 -1.185680 -50.989121 60.324694 -45.552263 -15.936129 11.671009 1.508647 22.409092 0.303029 -19.376519 -3.469869 6.850545 16.016157 -0.375427 4.783889 2.784320 0.431840 0.188190 0.201170 18.116196 -6.864401 6.302413 -14.154148 21.297177 -60.556853 27.286964 -45.917911 84.402176 -4.049422 -18.526991 -0.993657 0.135740 0.210850 0.173590 -5.775485 0.189707 -10.105658 28.535617 -9.126350 30.082027 -12.976392 -0.576125 11.817597 6.046263 3.118411 -11.686889 2.241235 -12.439644 43.720168 18.597180 -17.699220 -20.164680 -13.131093 -29.392527 10.571934 -45.724099 -31.177759 3.279462 -177.206007 -70.080863 162.080210 -3.347187 3.111768 0.537530 -0.135770 0.106130 0.233140 0.905983 27.779679 3.172006 16.151558 28.483466 -9.335496 161.029223 70.052385 141.147888 1.939498 -1.299132 -0.123400 0.266950 -0.072650 0.023490 
-2.877340 18.249530 -1.166160 -54.250614 62.108435 -48.481779 -15.963176 11.729192 1.619564 22.148876 0.337136 -20.796747 -3.772281 6.951522 16.466751 -0.376021 4.773822 2.751372 0.455780 0.203450 0.251860 18.072476 -6.696507 6.303979 -12.200879 22.753172 -61.162560 27.690048 -49.299716 87.743894 -4.376203 -19.440792 -1.141565 0.120780 0.142600 0.180860 -5.709401 0.176158 -10.207428 28.773323 -9.501070 31.463300 -13.145923 -0.482289 9.463518 5.953863 3.767969 -12.008104 3.369117 -13.503392 45.544187 19.671570 -17.754470 -21.659890 -14.901922 -28.286617 10.380808 -48.685474 -26.714088 0.541139 -149.808568 -70.234224 123.872814 -3.409386 2.932084 0.605170 -0.192040 0.172900 0.216020 2.604004 26.826885 3.601213 20.967650 27.559074 -9.158870 135.435409 66.490992 99.595395 2.400397 -0.797295 -0.107890 0.245510 -0.094510 0.001350 
-2.902770 18.170910 -1.129860 -58.073321 64.536083 -51.873062 -15.988114 11.863133 1.783186 21.186967 0.117269 -23.215011 -3.962221 7.185238 18.192467 -0.414269 4.832288 2.687693 0.457410 0.184350 0.317040 18.021864 -6.483396 6.336823 -10.996341 23.512004 -62.381318 27.731073 -52.964959 91.360811 -4.675867 -20.399209 -1.295271 0.101960 0.072240 0.186710 -5.469753 -0.149773 -10.275868 27.517545 -9.595698 32.395924 -12.044785 -0.560334 7.353334 5.686670 4.364003 -12.664330 4.387998 -14.462459 47.126677 17.686900 -17.349310 -21.401900 -15.944883 -27.277308 10.190432 -51.630035 -22.969413 -0.622206 -131.811172 -67.586571 96.900232 -3.556955 2.939621 0.660940 -0.219620 0.216230 0.169650 3.915339 25.889736 4.527794 24.835207 26.667837 -7.749907 122.323726 63.347051 76.172729 2.727903 -0.980041 -0.110650 0.221140 -0.093510 -0.047990 
-2.934980 18.070910 -1.073960 -61.284188 67.471467 -55.255369 -16.016249 12.043080 1.944826 19.537892 -0.372427 -25.450648 -4.076917 7.513352 20.887955 -0.443333 4.981328 2.600185 0.459650 0.154290 0.362410 17.953513 -6.305373 6.395895 -10.033713 24.230237 -64.056144 25.728366 -56.124048 96.976788 -5.001138 -21.562004 -1.482848 0.082410 0.023940 0.204160 -5.132710 -0.532289 -10.326144 24.596829 -9.047582 34.289618 -10.419993 -0.398412 5.047639 5.150518 4.946282 -13.274034 5.513687 -15.567872 48.110265 17.067280 -17.350200 -20.977060 -17.091265 -26.589407 9.861138 -52.859887 -18.853308 -2.482155 -118.876138 -63.849561 76.585015 -3.598278 3.148247 0.717960 -0.245380 0.249970 0.137500 5.907262 25.447618 5.435491 28.183696 24.890998 -7.050155 109.191107 58.049690 55.123800 2.701023 -1.478683 -0.115520 0.193330 -0.084800 -0.087010 
-2.943680 17.965940 -1.017090 -63.619100 69.560073 -58.114036 -16.011449 12.193229 2.082808 18.387432 -0.703946 -26.728336 -4.232501 7.994971 23.557613 -0.432079 5.227579 2.496391 0.451510 0.126270 0.414970 17.906219 -6.250475 6.380192 -8.205141 25.672431 -64.312974 23.858736 -58.636026 101.994244 -5.288050 -22.534903 -1.612343 0.059890 -0.022520 0.184250 -4.790146 -0.842109 -10.348452 21.946255 -8.056865 36.454568 -8.809507 0.243570 2.798310 4.632443 5.387479 -13.810639 6.604989 -16.518634 49.498326 16.946910 -17.334190 -20.887700 -19.053675 -25.729063 9.713844 -54.106703 -13.946140 -5.228120 -107.362670 -60.081774 60.387950 -3.525057 3.266613 0.774750 -0.282280 0.284860 0.104250 8.773447 25.157653 6.038463 31.159995 22.140246 -7.924227 98.485590 52.626458 41.085058 2.582897 -1.662851 -0.134340 0.198840 -0.089170 -0.123650 
-2.942390 17.862900 -0.961810 -63.471646 71.401236 -59.155218 -16.028032 12.363829 2.166481 17.012469 -0.926372 -27.513552 -3.850687 8.546131 27.008236 -0.412324 5.576877 2.355357 0.446350 0.117370 0.445650 17.833927 -6.281121 6.337547 -5.927811 27.387857 -63.132677 21.904210 -60.076104 106.417040 -5.506177 -23.244002 -1.694863 0.052710 -0.052340 0.154860 -4.404837 -1.295802 -10.317778 18.568808 -6.454153 39.308393 -6.634298 1.196780 0.605119 4.040392 5.360674 -13.939324 6.748570 -16.906340 51.482662 18.039780 -17.391500 -22.207750 -21.041240 -24.500440 9.128723 -54.620554 -9.989985 -8.048007 -94.260770 -55.247298 44.512706 -3.407407 3.273181 0.839910 -0.324590 0.321730 0.078870 12.049126 24.850197 6.259486 32.573742 19.331800 -9.189541 88.812188 47.914012 31.110269 2.499378 -1.644504 -0.160120 0.234990 -0.084480 -0.147560 
-2.953730 17.740560 -0.907950 -68.866376 74.001015 -64.921073 -15.972808 12.443188 2.358083 14.620577 -1.753237 -30.391209 -1.762514 8.672072 32.214973 -0.306780 5.962034 2.197769 0.478070 0.171420 0.462790 17.861521 -6.202859 6.303367 -5.321840 27.450777 -63.103917 20.391722 -61.884367 109.980685 -5.705737 -23.870210 -1.770945 0.056420 -0.101070 0.162220 -3.997639 -1.622878 -10.312482 15.830527 -5.486082 41.084798 -4.627194 1.457725 -1.486066 3.394877 5.536810 -13.873116 7.232162 -17.549471 52.040452 18.935840 -17.694700 -22.705470 -22.601172 -23.474824 8.689687 -54.653234 -6.531568 -10.468442 -84.395855 -49.690267 32.790221 -3.296115 3.302784 0.841060 -0.361650 0.369050 0.083920 14.965431 24.149832 6.171918 34.116201 16.844623 -10.133723 79.909086 43.970761 23.728370 2.471848 -1.642551 -0.114030 0.204900 -0.116950 -0.132360 
-2.945740 17.624530 -0.868100 -68.674313 75.739286 -65.398898 -15.998732 12.432159 2.483255 12.846952 -2.291064 -31.867390 -0.331724 8.971035 36.584508 -0.218677 6.453016 2.008544 0.517760 0.219610 0.501580 17.822730 -6.190544 6.272691 -4.965606 28.207112 -62.933022 19.655826 -62.703039 112.187275 -5.821663 -24.171512 -1.795420 0.073760 -0.148360 0.142000 -3.741862 -1.907002 -10.313914 13.395886 -3.742844 42.726742 -3.197410 2.544200 -3.085821 3.008368 5.377353 -13.726125 6.809839 -17.759743 53.671372 20.225700 -17.785330 -24.385400 -24.116352 -22.376015 7.828450 -54.576792 -4.707184 -12.061669 -72.419850 -44.706717 22.518483 -3.209086 3.235499 0.879750 -0.409210 0.409150 0.079790 17.471841 23.740410 6.372634 35.787355 14.174098 -11.157766 71.773481 40.678592 18.099913 2.439839 -1.579806 -0.104950 0.214900 -0.142970 -0.142160 
-2.921250 17.539390 -0.820090 -67.824588 77.485961 -65.557813 -16.037108 12.483205 2.501224 11.333085 -2.574056 -31.899291 0.454515 9.181609 39.219316 -0.113391 6.735828 1.893461 0.570430 0.287690 0.546590 17.787138 -6.176125 6.297540 -5.028841 28.482021 -62.025655 21.310184 -61.964368 110.377287 -5.753602 -23.707416 -1.737516 0.089720 -0.212060 0.133620 -3.596167 -2.013557 -10.279455 11.089532 -2.042924 44.057312 -2.177932 3.489466 -3.631904 2.592164 5.276725 -13.921353 7.007884 -17.451659 55.708743 21.637560 -17.002870 -25.387170 -25.115801 -21.764985 7.403706 -53.879603 -3.039572 -13.240841 -64.878676 -42.050721 17.403997 -3.128293 3.213952 0.902050 -0.460570 0.462040 0.084550 19.507771 23.699510 6.903924 38.582488 11.671552 -12.530010 61.739250 39.707417 13.807385 2.423088 -1.521630 -0.070410 0.194340 -0.188120 -0.145350 
-2.917190 17.476950 -0.778140 -70.469352 78.930707 -68.882998 -15.999311 12.484369 2.569691 10.406416 -2.945068 -32.217099 0.694679 9.402206 41.037480 -0.055473 7.011518 1.791333 0.564790 0.281780 0.548080 17.850956 -6.109102 6.341271 -5.389559 27.847685 -61.002224 20.575524 -59.153306 109.387125 -5.604326 -23.153846 -1.690839 0.080770 -0.219950 0.133980 -3.482456 -2.070100 -10.272949 9.824276 -1.447426 45.319141 -1.663917 3.623119 -3.974171 2.152179 4.953845 -13.698482 6.431966 -16.854024 56.693039 23.345550 -16.471760 -26.638950 -25.666533 -20.989568 7.059110 -52.627310 -1.648248 -13.917784 -60.750413 -41.449074 15.453502 -3.104378 3.179408 0.929080 -0.482170 0.481800 0.072990 21.079329 23.144617 6.991759 40.918150 10.142275 -13.460415 54.272475 39.673653 11.438130 2.407394 -1.445933 -0.071980 0.197760 -0.180110 -0.147590 
-2.925330 17.427090 -0.755600 -84.914656 79.532587 -83.431575 -15.706335 12.362125 2.750048 9.939034 -3.785074 -33.764625 1.505536 9.209132 43.147174 -0.021989 7.293754 1.711347 0.561290 0.283620 0.548510 18.167623 -6.014834 6.347257 -7.147366 25.470979 -60.483187 23.723347 -59.501215 105.016212 -5.466887 -22.543541 -1.605028 0.090650 -0.208130 0.117500 -3.267622 -1.935922 -10.307852 10.962046 -2.671723 45.816135 -2.005999 2.987150 -3.673493 2.122606 4.878671 -13.101396 6.401214 -17.206296 55.238984 23.407710 -16.336120 -27.696820 -25.829286 -19.840862 6.709250 -51.044378 -0.673283 -14.001083 -60.790081 -41.891027 15.929455 -3.105462 3.153748 0.936180 -0.482120 0.476240 0.075190 21.234747 21.876062 6.754623 42.844878 9.338318 -14.325398 49.789082 41.768293 10.858894 2.388741 -1.413306 -0.092860 0.225230 -0.180510 -0.149870 
